<mxfile host="65bd71144e" pages="2">
    <diagram id="R2lEEEUBdFMjLlhIrx00" name="AuthPackModule">
        <mxGraphModel dx="560" dy="1575" grid="1" gridSize="10" guides="1" tooltips="1" connect="1" arrows="1" fold="1" page="1" pageScale="1" pageWidth="850" pageHeight="1100" background="none" math="0" shadow="0" extFonts="Permanent Marker^https://fonts.googleapis.com/css?family=Permanent+Marker">
            <root>
                <mxCell id="0"/>
                <mxCell id="1" parent="0"/>
                <mxCell id="30" value="" style="whiteSpace=wrap;html=1;fillColor=#cce5ff;strokeColor=#36393d;" parent="1" vertex="1">
                    <mxGeometry x="25" y="-870" width="800" height="950" as="geometry"/>
                </mxCell>
                <mxCell id="AM7P59NkhDaSueUfzGQw-53" style="edgeStyle=orthogonalEdgeStyle;rounded=0;orthogonalLoop=1;jettySize=auto;html=1;exitX=0.5;exitY=0;exitDx=0;exitDy=0;entryX=0.5;entryY=1;entryDx=0;entryDy=0;fillColor=#e51400;strokeColor=#B20000;" parent="1" source="12" target="AM7P59NkhDaSueUfzGQw-52" edge="1">
                    <mxGeometry relative="1" as="geometry"/>
                </mxCell>
                <mxCell id="12" value="" style="whiteSpace=wrap;html=1;fontSize=23;fillColor=#d0cee2;strokeColor=#56517e;" parent="1" vertex="1">
                    <mxGeometry x="259" y="-500" width="361" height="120" as="geometry"/>
                </mxCell>
                <mxCell id="bsDVykLvRhCMeooRDLJG-57" value="" style="rounded=0;whiteSpace=wrap;html=1;fillColor=#d0cee2;strokeColor=#56517e;" parent="1" vertex="1">
                    <mxGeometry x="65" y="-345" width="720" height="390" as="geometry"/>
                </mxCell>
                <mxCell id="4" value="" style="whiteSpace=wrap;html=1;fillColor=#dae8fc;strokeColor=#6c8ebf;" parent="1" vertex="1">
                    <mxGeometry x="145" y="-92.5" width="590" height="105" as="geometry"/>
                </mxCell>
                <mxCell id="bsDVykLvRhCMeooRDLJG-68" style="edgeStyle=none;curved=1;rounded=0;orthogonalLoop=1;jettySize=auto;html=1;exitX=1;exitY=0.5;exitDx=0;exitDy=0;entryX=0;entryY=0.5;entryDx=0;entryDy=0;fontSize=12;startSize=8;endSize=8;fillColor=#e51400;strokeColor=#B20000;" parent="1" source="bsDVykLvRhCMeooRDLJG-1" target="bsDVykLvRhCMeooRDLJG-2" edge="1">
                    <mxGeometry relative="1" as="geometry"/>
                </mxCell>
                <mxCell id="bsDVykLvRhCMeooRDLJG-1" value="" style="rounded=0;whiteSpace=wrap;html=1;fillColor=#b0e3e6;strokeColor=#0e8088;" parent="1" vertex="1">
                    <mxGeometry x="160" y="-80" width="160" height="80" as="geometry"/>
                </mxCell>
                <mxCell id="AM7P59NkhDaSueUfzGQw-45" style="edgeStyle=orthogonalEdgeStyle;rounded=0;orthogonalLoop=1;jettySize=auto;html=1;exitX=0.5;exitY=0;exitDx=0;exitDy=0;entryX=0.5;entryY=1;entryDx=0;entryDy=0;fillColor=#e51400;strokeColor=#B20000;" parent="1" source="bsDVykLvRhCMeooRDLJG-2" target="12" edge="1">
                    <mxGeometry relative="1" as="geometry"/>
                </mxCell>
                <mxCell id="bsDVykLvRhCMeooRDLJG-2" value="" style="rounded=0;whiteSpace=wrap;html=1;fillColor=#b0e3e6;strokeColor=#0e8088;" parent="1" vertex="1">
                    <mxGeometry x="360" y="-80" width="160" height="80" as="geometry"/>
                </mxCell>
                <mxCell id="AM7P59NkhDaSueUfzGQw-49" style="edgeStyle=orthogonalEdgeStyle;rounded=0;orthogonalLoop=1;jettySize=auto;html=1;exitX=0.5;exitY=0;exitDx=0;exitDy=0;entryX=0.75;entryY=1;entryDx=0;entryDy=0;fillColor=#e51400;strokeColor=#B20000;" parent="1" source="bsDVykLvRhCMeooRDLJG-3" target="12" edge="1">
                    <mxGeometry relative="1" as="geometry">
                        <Array as="points">
                            <mxPoint x="640" y="-140"/>
                            <mxPoint x="530" y="-140"/>
                        </Array>
                    </mxGeometry>
                </mxCell>
                <mxCell id="bsDVykLvRhCMeooRDLJG-3" value="" style="rounded=0;whiteSpace=wrap;html=1;fillColor=#b0e3e6;strokeColor=#0e8088;" parent="1" vertex="1">
                    <mxGeometry x="560" y="-80" width="160" height="80" as="geometry"/>
                </mxCell>
                <mxCell id="AM7P59NkhDaSueUfzGQw-46" style="edgeStyle=orthogonalEdgeStyle;rounded=0;orthogonalLoop=1;jettySize=auto;html=1;exitX=0.5;exitY=0;exitDx=0;exitDy=0;entryX=0.25;entryY=1;entryDx=0;entryDy=0;fillColor=#e51400;strokeColor=#B20000;" parent="1" source="bsDVykLvRhCMeooRDLJG-5" target="12" edge="1">
                    <mxGeometry relative="1" as="geometry"/>
                </mxCell>
                <mxCell id="bsDVykLvRhCMeooRDLJG-5" value="" style="rounded=0;whiteSpace=wrap;html=1;fillColor=#ffe6cc;strokeColor=#d79b00;" parent="1" vertex="1">
                    <mxGeometry x="260" y="-260" width="160" height="80" as="geometry"/>
                </mxCell>
                <mxCell id="AM7P59NkhDaSueUfzGQw-54" style="edgeStyle=orthogonalEdgeStyle;rounded=0;orthogonalLoop=1;jettySize=auto;html=1;exitX=1;exitY=0.5;exitDx=0;exitDy=0;entryX=0.25;entryY=0;entryDx=0;entryDy=0;fillColor=#e51400;strokeColor=#B20000;" parent="1" source="bsDVykLvRhCMeooRDLJG-6" target="bsDVykLvRhCMeooRDLJG-5" edge="1">
                    <mxGeometry relative="1" as="geometry"/>
                </mxCell>
                <mxCell id="bsDVykLvRhCMeooRDLJG-6" value="" style="rounded=0;whiteSpace=wrap;html=1;fillColor=#b0e3e6;strokeColor=#0e8088;" parent="1" vertex="1">
                    <mxGeometry x="90" y="-320" width="160" height="80" as="geometry"/>
                </mxCell>
                <mxCell id="AM7P59NkhDaSueUfzGQw-55" style="edgeStyle=orthogonalEdgeStyle;rounded=0;orthogonalLoop=1;jettySize=auto;html=1;exitX=1;exitY=0.5;exitDx=0;exitDy=0;entryX=0.25;entryY=1;entryDx=0;entryDy=0;fillColor=#e51400;strokeColor=#B20000;" parent="1" source="bsDVykLvRhCMeooRDLJG-8" target="bsDVykLvRhCMeooRDLJG-5" edge="1">
                    <mxGeometry relative="1" as="geometry"/>
                </mxCell>
                <mxCell id="bsDVykLvRhCMeooRDLJG-8" value="" style="rounded=0;whiteSpace=wrap;html=1;fillColor=#b0e3e6;strokeColor=#0e8088;" parent="1" vertex="1">
                    <mxGeometry x="90" y="-200" width="160" height="80" as="geometry"/>
                </mxCell>
                <mxCell id="bsDVykLvRhCMeooRDLJG-20" value="session service" style="text;strokeColor=none;fillColor=none;html=1;align=center;verticalAlign=middle;whiteSpace=wrap;rounded=0;fontSize=16;fontColor=#000000;" parent="1" vertex="1">
                    <mxGeometry x="310" y="-235" width="60" height="30" as="geometry"/>
                </mxCell>
                <mxCell id="bsDVykLvRhCMeooRDLJG-22" value="prisma&lt;div&gt;service&lt;/div&gt;" style="text;strokeColor=none;fillColor=none;html=1;align=center;verticalAlign=middle;whiteSpace=wrap;rounded=0;fontSize=16;fontColor=#000000;" parent="1" vertex="1">
                    <mxGeometry x="140" y="-295" width="60" height="30" as="geometry"/>
                </mxCell>
                <mxCell id="bsDVykLvRhCMeooRDLJG-23" value="jwt&lt;div&gt;auth&lt;/div&gt;&lt;div&gt;service&lt;/div&gt;" style="text;strokeColor=none;fillColor=none;html=1;align=center;verticalAlign=middle;whiteSpace=wrap;rounded=0;fontSize=16;fontColor=#000000;" parent="1" vertex="1">
                    <mxGeometry x="410" y="-55" width="60" height="30" as="geometry"/>
                </mxCell>
                <mxCell id="bsDVykLvRhCMeooRDLJG-24" value="jwt&lt;div&gt;auth&lt;/div&gt;&lt;div&gt;settings&lt;/div&gt;" style="text;html=1;align=center;verticalAlign=middle;whiteSpace=wrap;rounded=0;fontSize=16;fontColor=#000000;" parent="1" vertex="1">
                    <mxGeometry x="210" y="-55" width="60" height="30" as="geometry"/>
                </mxCell>
                <mxCell id="bsDVykLvRhCMeooRDLJG-25" value="mutex&lt;div&gt;manager&lt;/div&gt;" style="text;strokeColor=none;fillColor=none;html=1;align=center;verticalAlign=middle;whiteSpace=wrap;rounded=0;fontSize=16;fontColor=#000000;" parent="1" vertex="1">
                    <mxGeometry x="140" y="-175" width="60" height="30" as="geometry"/>
                </mxCell>
                <mxCell id="bsDVykLvRhCMeooRDLJG-26" value="cookie&lt;div&gt;settings&lt;/div&gt;" style="text;strokeColor=none;fillColor=none;html=1;align=center;verticalAlign=middle;whiteSpace=wrap;rounded=0;fontSize=16;fontColor=#000000;" parent="1" vertex="1">
                    <mxGeometry x="610" y="-55" width="60" height="30" as="geometry"/>
                </mxCell>
                <mxCell id="bsDVykLvRhCMeooRDLJG-38" value="" style="rounded=0;whiteSpace=wrap;html=1;fillColor=#b0e3e6;strokeColor=#0e8088;" parent="1" vertex="1">
                    <mxGeometry x="389" y="-480" width="100" height="80" as="geometry"/>
                </mxCell>
                <mxCell id="bsDVykLvRhCMeooRDLJG-39" value="Jwt&lt;div&gt;Guard&lt;/div&gt;" style="text;strokeColor=none;fillColor=none;html=1;align=center;verticalAlign=middle;whiteSpace=wrap;rounded=0;fontSize=16;fontColor=#000000;" parent="1" vertex="1">
                    <mxGeometry x="409" y="-455" width="60" height="30" as="geometry"/>
                </mxCell>
                <mxCell id="bsDVykLvRhCMeooRDLJG-41" style="edgeStyle=none;curved=1;rounded=0;orthogonalLoop=1;jettySize=auto;html=1;exitX=0.5;exitY=0;exitDx=0;exitDy=0;fontSize=12;startSize=8;endSize=8;" parent="1" source="bsDVykLvRhCMeooRDLJG-2" target="bsDVykLvRhCMeooRDLJG-2" edge="1">
                    <mxGeometry relative="1" as="geometry"/>
                </mxCell>
                <mxCell id="2pIqFcaxaHWDigUK412T-35" style="edgeStyle=orthogonalEdgeStyle;shape=link;rounded=0;orthogonalLoop=1;jettySize=auto;html=1;exitX=0.5;exitY=1;exitDx=0;exitDy=0;entryX=0.75;entryY=0;entryDx=0;entryDy=0;fillColor=#e51400;strokeColor=#B20000;" parent="1" source="bsDVykLvRhCMeooRDLJG-58" target="bsDVykLvRhCMeooRDLJG-57" edge="1">
                    <mxGeometry relative="1" as="geometry"/>
                </mxCell>
                <mxCell id="bsDVykLvRhCMeooRDLJG-58" value="AuthPackModule" style="text;strokeColor=none;align=center;fillColor=none;html=1;verticalAlign=middle;whiteSpace=wrap;rounded=0;fontSize=16;fontColor=#000000;" parent="1" vertex="1">
                    <mxGeometry x="715" y="-430" width="60" height="30" as="geometry"/>
                </mxCell>
                <mxCell id="bsDVykLvRhCMeooRDLJG-70" value="" style="shape=note;whiteSpace=wrap;html=1;backgroundOutline=1;fontColor=#000000;darkOpacity=0.05;fillColor=#FFF9B2;strokeColor=none;fillStyle=solid;direction=west;gradientDirection=north;gradientColor=#FFF2A1;shadow=1;size=20;pointerEvents=1;" parent="1" vertex="1">
                    <mxGeometry x="579" y="-335" width="200" height="115" as="geometry"/>
                </mxCell>
                <mxCell id="bsDVykLvRhCMeooRDLJG-71" value="session service еще используется в своем модуле, откуда и экспортируется!" style="text;strokeColor=none;fillColor=none;html=1;align=center;verticalAlign=middle;whiteSpace=wrap;rounded=0;fontSize=16;labelBackgroundColor=none;labelBorderColor=none;spacingTop=0;fontColor=#0D0D0D;" parent="1" vertex="1">
                    <mxGeometry x="599" y="-290" width="170" height="30" as="geometry"/>
                </mxCell>
                <mxCell id="2pIqFcaxaHWDigUK412T-33" style="edgeStyle=orthogonalEdgeStyle;shape=link;rounded=0;orthogonalLoop=1;jettySize=auto;html=1;exitX=1;exitY=0.5;exitDx=0;exitDy=0;entryX=0;entryY=0.5;entryDx=0;entryDy=0;fillColor=#e51400;strokeColor=#B20000;" parent="1" source="bsDVykLvRhCMeooRDLJG-74" target="12" edge="1">
                    <mxGeometry relative="1" as="geometry"/>
                </mxCell>
                <mxCell id="bsDVykLvRhCMeooRDLJG-74" value="Аутентифицирует и авторизует сессии и аккаунты" style="text;strokeColor=none;fillColor=none;html=1;align=center;verticalAlign=middle;whiteSpace=wrap;rounded=0;fontSize=16;fontColor=#000000;" parent="1" vertex="1">
                    <mxGeometry x="40" y="-575" width="150" height="30" as="geometry"/>
                </mxCell>
                <mxCell id="2pIqFcaxaHWDigUK412T-34" style="edgeStyle=orthogonalEdgeStyle;shape=link;rounded=0;orthogonalLoop=1;jettySize=auto;html=1;exitX=0.5;exitY=1;exitDx=0;exitDy=0;entryX=0.75;entryY=0;entryDx=0;entryDy=0;fillColor=#e51400;strokeColor=#B20000;" parent="1" source="dbuw_rw_clf15lGVqVSC-2" target="4" edge="1">
                    <mxGeometry relative="1" as="geometry"/>
                </mxCell>
                <mxCell id="dbuw_rw_clf15lGVqVSC-2" value="Ядро. Можно менять переменные настроек" style="text;strokeColor=none;fillColor=none;html=1;align=center;verticalAlign=middle;whiteSpace=wrap;rounded=0;fontSize=16;fontColor=#000000;" parent="1" vertex="1">
                    <mxGeometry x="604" y="-205" width="160" height="55" as="geometry"/>
                </mxCell>
                <mxCell id="13" value="" style="whiteSpace=wrap;html=1;fontSize=23;fillColor=#b0e3e6;strokeColor=#0e8088;" parent="1" vertex="1">
                    <mxGeometry x="499" y="-480" width="100" height="80" as="geometry"/>
                </mxCell>
                <mxCell id="14" value="" style="whiteSpace=wrap;html=1;fontSize=23;fillColor=#b0e3e6;strokeColor=#0e8088;" parent="1" vertex="1">
                    <mxGeometry x="279" y="-480" width="100" height="80" as="geometry"/>
                </mxCell>
                <mxCell id="21" value="Jwt&lt;br style=&quot;font-size: 16px;&quot;&gt;Ahthorized" style="text;strokeColor=none;align=center;fillColor=none;html=1;verticalAlign=middle;whiteSpace=wrap;rounded=0;fontSize=16;fontColor=#000000;" parent="1" vertex="1">
                    <mxGeometry x="299" y="-455" width="60" height="30" as="geometry"/>
                </mxCell>
                <mxCell id="22" value="Jwt&lt;br&gt;Check" style="text;strokeColor=none;align=center;fillColor=none;html=1;verticalAlign=middle;whiteSpace=wrap;rounded=0;fontSize=16;fontColor=#000000;" parent="1" vertex="1">
                    <mxGeometry x="519" y="-455" width="60" height="30" as="geometry"/>
                </mxCell>
                <mxCell id="2pIqFcaxaHWDigUK412T-32" style="edgeStyle=orthogonalEdgeStyle;shape=link;rounded=0;orthogonalLoop=1;jettySize=auto;html=1;exitX=0;exitY=0.5;exitDx=0;exitDy=0;entryX=1;entryY=0.5;entryDx=0;entryDy=0;fillColor=#e51400;strokeColor=#B20000;" parent="1" source="27" target="12" edge="1">
                    <mxGeometry relative="1" as="geometry"/>
                </mxCell>
                <mxCell id="27" value="Jwt&lt;br&gt;Guards" style="text;strokeColor=none;align=center;fillColor=none;html=1;verticalAlign=middle;whiteSpace=wrap;rounded=0;fontSize=16;fontColor=#000000;" parent="1" vertex="1">
                    <mxGeometry x="720" y="-590" width="70" height="60" as="geometry"/>
                </mxCell>
                <mxCell id="CV0Yn9FMnOD60obIQpDz-41" style="edgeStyle=orthogonalEdgeStyle;rounded=0;orthogonalLoop=1;jettySize=auto;html=1;exitX=0.5;exitY=0;exitDx=0;exitDy=0;entryX=0.5;entryY=1;entryDx=0;entryDy=0;fillColor=#e51400;strokeColor=#B20000;" parent="1" source="AM7P59NkhDaSueUfzGQw-52" target="CV0Yn9FMnOD60obIQpDz-38" edge="1">
                    <mxGeometry relative="1" as="geometry"/>
                </mxCell>
                <mxCell id="AM7P59NkhDaSueUfzGQw-52" value="Modules" style="text;strokeColor=#ae4132;align=center;fillColor=#fad9d5;html=1;verticalAlign=middle;whiteSpace=wrap;rounded=0;fontSize=23;fontColor=#000000;" parent="1" vertex="1">
                    <mxGeometry x="364.75" y="-670" width="150.5" height="140" as="geometry"/>
                </mxCell>
                <UserObject label="AppModule" link="data:page/id,p3oJ3imwA-eH_vvO8SaG" id="T1gub4jGsVLxpocdvYiY-30">
                    <mxCell style="fontStyle=4;rounded=1;overflow=hidden;spacing=10;" parent="1" vertex="1">
                        <mxGeometry x="390" y="-660" width="100" height="40" as="geometry"/>
                    </mxCell>
                </UserObject>
                <mxCell id="CV0Yn9FMnOD60obIQpDz-33" value="Через UseGuards(&amp;lt;название гварда&amp;gt;) применяются гварды в контроллерах. Для использования гвардов наглядно видно зачем нужен AuthPackModule" style="whiteSpace=wrap;html=1;fontSize=18;fillColor=#f5f5f5;strokeColor=#666666;fontColor=#333333;" parent="1" vertex="1">
                    <mxGeometry x="25" y="-1080" width="315" height="180" as="geometry"/>
                </mxCell>
                <mxCell id="CV0Yn9FMnOD60obIQpDz-37" value="UseGuards()" style="whiteSpace=wrap;html=1;fillColor=#d5e8d4;strokeColor=#82b366;fontColor=#000000;" parent="1" vertex="1">
                    <mxGeometry x="403.5" y="-830" width="71" height="40" as="geometry"/>
                </mxCell>
                <mxCell id="CV0Yn9FMnOD60obIQpDz-42" style="edgeStyle=orthogonalEdgeStyle;rounded=0;orthogonalLoop=1;jettySize=auto;html=1;exitX=0.5;exitY=0;exitDx=0;exitDy=0;entryX=0.5;entryY=1;entryDx=0;entryDy=0;fillColor=#e51400;strokeColor=#B20000;" parent="1" source="CV0Yn9FMnOD60obIQpDz-38" target="CV0Yn9FMnOD60obIQpDz-37" edge="1">
                    <mxGeometry relative="1" as="geometry"/>
                </mxCell>
                <mxCell id="CV0Yn9FMnOD60obIQpDz-38" value="Controller" style="text;strokeColor=#d79b00;align=center;fillColor=#ffe6cc;html=1;verticalAlign=middle;whiteSpace=wrap;rounded=0;fontColor=#000000;" parent="1" vertex="1">
                    <mxGeometry x="404.5" y="-760" width="70" height="70" as="geometry"/>
                </mxCell>
            </root>
        </mxGraphModel>
    </diagram>
    <diagram id="p3oJ3imwA-eH_vvO8SaG" name="AppModule">
        <mxGraphModel dx="560" dy="475" grid="1" gridSize="10" guides="1" tooltips="1" connect="1" arrows="1" fold="1" page="1" pageScale="1" pageWidth="850" pageHeight="1100" math="0" shadow="0">
            <root>
                <mxCell id="0"/>
                <mxCell id="1" parent="0"/>
                <mxCell id="oYupY9DQjBXJfy0KJbgJ-9" value="" style="whiteSpace=wrap;html=1;labelBackgroundColor=none;fillColor=#cce5ff;strokeColor=#36393d;" parent="1" vertex="1">
                    <mxGeometry x="50" y="70" width="750" height="900" as="geometry"/>
                </mxCell>
                <mxCell id="7_ib-58lk79bvDDPkH4Y-19" style="edgeStyle=orthogonalEdgeStyle;shape=link;html=1;exitX=1;exitY=0.5;exitDx=0;exitDy=0;entryX=0;entryY=0.5;entryDx=0;entryDy=0;fillColor=#e51400;strokeColor=#B20000;" parent="1" source="y75sgq2E1XgLSyIJJuav-425" target="7_ib-58lk79bvDDPkH4Y-18" edge="1">
                    <mxGeometry relative="1" as="geometry"/>
                </mxCell>
                <mxCell id="y75sgq2E1XgLSyIJJuav-425" value="" style="whiteSpace=wrap;html=1;fillColor=#fad9d5;strokeColor=#ae4132;" parent="1" vertex="1">
                    <mxGeometry x="250" y="350" width="400" height="300" as="geometry"/>
                </mxCell>
                <mxCell id="7_ib-58lk79bvDDPkH4Y-5" style="edgeStyle=orthogonalEdgeStyle;html=1;exitX=0.5;exitY=1;exitDx=0;exitDy=0;entryX=0.5;entryY=0;entryDx=0;entryDy=0;fillColor=#e51400;strokeColor=#B20000;" parent="1" source="UIEMtNQGm5GCRjqhV5un-1" target="oYupY9DQjBXJfy0KJbgJ-1" edge="1">
                    <mxGeometry relative="1" as="geometry"/>
                </mxCell>
                <mxCell id="UIEMtNQGm5GCRjqhV5un-1" value="" style="whiteSpace=wrap;html=1;fillColor=#d0cee2;strokeColor=#56517e;" parent="1" vertex="1">
                    <mxGeometry x="250" y="730" width="400" height="110" as="geometry"/>
                </mxCell>
                <mxCell id="dxeLh0eW-HJ8hVcrJscJ-1" value="Modules" style="text;strokeColor=#ae4132;align=center;fillColor=#fad9d5;html=1;verticalAlign=middle;whiteSpace=wrap;rounded=0;fontSize=20;" parent="1" vertex="1">
                    <mxGeometry x="340" y="737.5" width="300" height="90" as="geometry"/>
                </mxCell>
                <mxCell id="dxeLh0eW-HJ8hVcrJscJ-4" value="Config&lt;div&gt;Service&lt;/div&gt;" style="text;strokeColor=#d6b656;align=center;fillColor=#fff2cc;html=1;verticalAlign=middle;whiteSpace=wrap;rounded=0;fontSize=12;" parent="1" vertex="1">
                    <mxGeometry x="260" y="737.5" width="70" height="90" as="geometry"/>
                </mxCell>
                <mxCell id="dxeLh0eW-HJ8hVcrJscJ-9" value="BlackList&lt;div&gt;&lt;div&gt;Module&lt;/div&gt;&lt;/div&gt;" style="text;strokeColor=#56517e;align=center;fillColor=#d0cee2;html=1;verticalAlign=middle;whiteSpace=wrap;rounded=0;fontColor=#000000;" parent="1" vertex="1">
                    <mxGeometry x="460" y="560" width="80" height="80" as="geometry"/>
                </mxCell>
                <mxCell id="dxeLh0eW-HJ8hVcrJscJ-10" value="Privacy&lt;div&gt;Module&lt;/div&gt;" style="text;strokeColor=#56517e;align=center;fillColor=#d0cee2;html=1;verticalAlign=middle;whiteSpace=wrap;rounded=0;fontColor=#000000;" parent="1" vertex="1">
                    <mxGeometry x="460" y="460" width="80" height="80" as="geometry"/>
                </mxCell>
                <mxCell id="dxeLh0eW-HJ8hVcrJscJ-12" value="&lt;div&gt;&lt;div&gt;Editor&lt;/div&gt;&lt;div&gt;Module&lt;/div&gt;&lt;/div&gt;" style="text;strokeColor=#56517e;align=center;fillColor=#d0cee2;html=1;verticalAlign=middle;whiteSpace=wrap;rounded=0;fontColor=#000000;" parent="1" vertex="1">
                    <mxGeometry x="460" y="360" width="80" height="80" as="geometry"/>
                </mxCell>
                <mxCell id="dxeLh0eW-HJ8hVcrJscJ-25" value="Friend&lt;br&gt;&lt;div&gt;&lt;div&gt;Module&lt;/div&gt;&lt;/div&gt;" style="text;strokeColor=#56517e;align=center;fillColor=#d0cee2;html=1;verticalAlign=middle;whiteSpace=wrap;rounded=0;fontColor=#000000;" parent="1" vertex="1">
                    <mxGeometry x="560" y="560" width="80" height="80" as="geometry"/>
                </mxCell>
                <mxCell id="QxfS58luQcQzpfXx3UUN-2" style="edgeStyle=orthogonalEdgeStyle;shape=link;rounded=0;orthogonalLoop=1;jettySize=auto;html=1;exitX=0;exitY=0.5;exitDx=0;exitDy=0;entryX=1;entryY=0.5;entryDx=0;entryDy=0;fillColor=#e51400;strokeColor=#B20000;" parent="1" source="9F6EkuThBsSK-d-JFRXP-1" target="UIEMtNQGm5GCRjqhV5un-1" edge="1">
                    <mxGeometry relative="1" as="geometry"/>
                </mxCell>
                <mxCell id="9F6EkuThBsSK-d-JFRXP-1" value="AppModule" style="text;strokeColor=none;align=center;fillColor=none;html=1;verticalAlign=middle;whiteSpace=wrap;rounded=0;fontColor=#000000;" parent="1" vertex="1">
                    <mxGeometry x="715" y="655" width="80" height="70" as="geometry"/>
                </mxCell>
                <mxCell id="7_ib-58lk79bvDDPkH4Y-8" style="edgeStyle=orthogonalEdgeStyle;html=1;exitX=0;exitY=0.5;exitDx=0;exitDy=0;entryX=0.5;entryY=0;entryDx=0;entryDy=0;fillColor=#e51400;strokeColor=#B20000;" parent="1" source="9F6EkuThBsSK-d-JFRXP-7" target="oYupY9DQjBXJfy0KJbgJ-3" edge="1">
                    <mxGeometry relative="1" as="geometry"/>
                </mxCell>
                <mxCell id="9F6EkuThBsSK-d-JFRXP-7" value="Session&lt;div&gt;Service&lt;/div&gt;" style="text;strokeColor=#d6b656;align=center;fillColor=#fff2cc;html=1;verticalAlign=middle;whiteSpace=wrap;rounded=0;fontSize=12;fontColor=#000000;" parent="1" vertex="1">
                    <mxGeometry x="260" y="360" width="80" height="80" as="geometry"/>
                </mxCell>
                <mxCell id="y75sgq2E1XgLSyIJJuav-1" value="Module" style="whiteSpace=wrap;html=1;fillColor=#d0cee2;strokeColor=#56517e;fontSize=15;fontColor=#000000;" parent="1" vertex="1">
                    <mxGeometry x="365" y="200" width="120" height="80" as="geometry"/>
                </mxCell>
                <mxCell id="7_ib-58lk79bvDDPkH4Y-13" style="edgeStyle=orthogonalEdgeStyle;html=1;exitX=0.5;exitY=1;exitDx=0;exitDy=0;entryX=0.25;entryY=0;entryDx=0;entryDy=0;fillColor=#e51400;strokeColor=#B20000;" parent="1" source="y75sgq2E1XgLSyIJJuav-4" target="y75sgq2E1XgLSyIJJuav-1" edge="1">
                    <mxGeometry relative="1" as="geometry"/>
                </mxCell>
                <mxCell id="y75sgq2E1XgLSyIJJuav-4" value="&lt;div&gt;Service&lt;/div&gt;" style="text;strokeColor=#d6b656;align=center;fillColor=#fff2cc;html=1;verticalAlign=middle;whiteSpace=wrap;rounded=0;fontSize=12;fontColor=#000000;" parent="1" vertex="1">
                    <mxGeometry x="285" y="80" width="80" height="80" as="geometry"/>
                </mxCell>
                <mxCell id="7_ib-58lk79bvDDPkH4Y-12" style="edgeStyle=orthogonalEdgeStyle;html=1;exitX=0.5;exitY=1;exitDx=0;exitDy=0;entryX=0.5;entryY=0;entryDx=0;entryDy=0;" parent="1" source="y75sgq2E1XgLSyIJJuav-5" target="y75sgq2E1XgLSyIJJuav-1" edge="1">
                    <mxGeometry relative="1" as="geometry"/>
                </mxCell>
                <mxCell id="y75sgq2E1XgLSyIJJuav-5" value="Controller" style="text;strokeColor=#d6b656;align=center;fillColor=#fff2cc;html=1;verticalAlign=middle;whiteSpace=wrap;rounded=0;fontSize=12;fontColor=#000000;" parent="1" vertex="1">
                    <mxGeometry x="385" y="80" width="80" height="80" as="geometry"/>
                </mxCell>
                <mxCell id="7_ib-58lk79bvDDPkH4Y-11" style="edgeStyle=orthogonalEdgeStyle;html=1;exitX=0.5;exitY=1;exitDx=0;exitDy=0;entryX=0.75;entryY=0;entryDx=0;entryDy=0;fillColor=#e51400;strokeColor=#B20000;" parent="1" source="y75sgq2E1XgLSyIJJuav-6" target="y75sgq2E1XgLSyIJJuav-1" edge="1">
                    <mxGeometry relative="1" as="geometry"/>
                </mxCell>
                <mxCell id="y75sgq2E1XgLSyIJJuav-6" value="DTO&lt;div&gt;(Если есть)&lt;/div&gt;" style="text;strokeColor=#d6b656;align=center;fillColor=#fff2cc;html=1;verticalAlign=middle;whiteSpace=wrap;rounded=0;fontSize=12;fontColor=#000000;" parent="1" vertex="1">
                    <mxGeometry x="485" y="80" width="80" height="80" as="geometry"/>
                </mxCell>
                <mxCell id="y75sgq2E1XgLSyIJJuav-11" value="Используется в каждом модуле" style="text;strokeColor=none;align=center;fillColor=none;html=1;verticalAlign=middle;whiteSpace=wrap;rounded=0;fontSize=17;fontColor=#000000;" parent="1" vertex="1">
                    <mxGeometry x="80" y="870" width="125" height="70" as="geometry"/>
                </mxCell>
                <mxCell id="y75sgq2E1XgLSyIJJuav-13" value="Типичный вид модуля" style="text;strokeColor=none;align=center;fillColor=none;html=1;verticalAlign=middle;whiteSpace=wrap;rounded=0;fontSize=21;fontColor=#000000;" parent="1" vertex="1">
                    <mxGeometry x="525" y="210" width="150" height="70" as="geometry"/>
                </mxCell>
                <mxCell id="dxeLh0eW-HJ8hVcrJscJ-13" value="Support&lt;div&gt;Module&lt;/div&gt;" style="text;strokeColor=#56517e;align=center;fillColor=#d0cee2;html=1;verticalAlign=middle;whiteSpace=wrap;rounded=0;fontColor=#000000;" parent="1" vertex="1">
                    <mxGeometry x="560" y="460" width="80" height="80" as="geometry"/>
                </mxCell>
                <mxCell id="dxeLh0eW-HJ8hVcrJscJ-11" value="Posts&lt;br&gt;&lt;div&gt;&lt;div&gt;Module&lt;/div&gt;&lt;/div&gt;" style="text;strokeColor=#56517e;align=center;fillColor=#d0cee2;html=1;verticalAlign=middle;whiteSpace=wrap;rounded=0;labelBackgroundColor=none;fontColor=#000000;" parent="1" vertex="1">
                    <mxGeometry x="260" y="460" width="80" height="80" as="geometry"/>
                </mxCell>
                <mxCell id="7_ib-58lk79bvDDPkH4Y-6" style="edgeStyle=orthogonalEdgeStyle;html=1;exitX=0;exitY=0.5;exitDx=0;exitDy=0;entryX=1;entryY=0.5;entryDx=0;entryDy=0;fillColor=#e51400;strokeColor=#B20000;" parent="1" source="dxeLh0eW-HJ8hVcrJscJ-24" target="9F6EkuThBsSK-d-JFRXP-7" edge="1">
                    <mxGeometry relative="1" as="geometry"/>
                </mxCell>
                <mxCell id="dxeLh0eW-HJ8hVcrJscJ-24" value="Session&lt;br&gt;&lt;div&gt;&lt;div&gt;Module&lt;/div&gt;&lt;/div&gt;" style="text;strokeColor=#56517e;align=center;fillColor=#d0cee2;html=1;verticalAlign=middle;whiteSpace=wrap;rounded=0;fontColor=#000000;" parent="1" vertex="1">
                    <mxGeometry x="360.13" y="360" width="80" height="80" as="geometry"/>
                </mxCell>
                <mxCell id="oYupY9DQjBXJfy0KJbgJ-1" value="Main" style="text;strokeColor=#36393d;align=center;fillColor=#ffcc99;html=1;verticalAlign=middle;whiteSpace=wrap;rounded=0;fontSize=23;fontColor=#000000;" parent="1" vertex="1">
                    <mxGeometry x="375" y="875" width="150" height="60" as="geometry"/>
                </mxCell>
                <mxCell id="QxfS58luQcQzpfXx3UUN-1" style="edgeStyle=orthogonalEdgeStyle;shape=link;rounded=0;orthogonalLoop=1;jettySize=auto;html=1;exitX=0.5;exitY=0;exitDx=0;exitDy=0;entryX=0.5;entryY=1;entryDx=0;entryDy=0;fillColor=#e51400;strokeColor=#B20000;" parent="1" target="oYupY9DQjBXJfy0KJbgJ-3" edge="1">
                    <mxGeometry relative="1" as="geometry">
                        <mxPoint x="141.25" y="870" as="sourcePoint"/>
                    </mxGeometry>
                </mxCell>
                <UserObject label="AuthPackModule" link="data:page/id,R2lEEEUBdFMjLlhIrx00" id="oYupY9DQjBXJfy0KJbgJ-3">
                    <mxCell style="fontStyle=4;rounded=1;overflow=hidden;spacing=10;fillColor=#d0cee2;strokeColor=#56517e;fontSize=19;fontColor=#000000;" parent="1" vertex="1">
                        <mxGeometry x="58.75" y="617.5" width="165" height="120" as="geometry"/>
                    </mxCell>
                </UserObject>
                <mxCell id="oYupY9DQjBXJfy0KJbgJ-4" value="Config&lt;div&gt;Service&lt;/div&gt;" style="text;strokeColor=#d6b656;align=center;fillColor=#fff2cc;html=1;verticalAlign=middle;whiteSpace=wrap;rounded=0;fontSize=12;fontColor=#000000;" parent="1" vertex="1">
                    <mxGeometry x="258.75" y="737.5" width="70" height="90" as="geometry"/>
                </mxCell>
                <mxCell id="oYupY9DQjBXJfy0KJbgJ-5" value="Modules" style="text;strokeColor=#ae4132;align=center;fillColor=#fad9d5;html=1;verticalAlign=middle;whiteSpace=wrap;rounded=0;fontSize=20;fontColor=#000000;" parent="1" vertex="1">
                    <mxGeometry x="338.75" y="737.5" width="300" height="90" as="geometry"/>
                </mxCell>
                <mxCell id="oYupY9DQjBXJfy0KJbgJ-6" value="Auth&lt;div&gt;Module&lt;/div&gt;" style="text;strokeColor=#56517e;align=center;fillColor=#d0cee2;html=1;verticalAlign=middle;whiteSpace=wrap;rounded=0;fontColor=#000000;" parent="1" vertex="1">
                    <mxGeometry x="260" y="560" width="80" height="80" as="geometry"/>
                </mxCell>
                <mxCell id="oYupY9DQjBXJfy0KJbgJ-7" value="Profile&lt;div&gt;Module&lt;/div&gt;" style="text;strokeColor=#56517e;align=center;fillColor=#d0cee2;html=1;verticalAlign=middle;whiteSpace=wrap;rounded=0;fontColor=#000000;" parent="1" vertex="1">
                    <mxGeometry x="360.13" y="560" width="80" height="80" as="geometry"/>
                </mxCell>
                <mxCell id="oYupY9DQjBXJfy0KJbgJ-8" value="Subscribe&lt;div&gt;Module&lt;/div&gt;" style="text;strokeColor=#56517e;align=center;fillColor=#d0cee2;html=1;verticalAlign=middle;whiteSpace=wrap;rounded=0;fontColor=#000000;" parent="1" vertex="1">
                    <mxGeometry x="360.13" y="460" width="80" height="80" as="geometry"/>
                </mxCell>
                <mxCell id="niMMALt4wQzLZeukiwdf-1" value="&lt;div&gt;&lt;div&gt;Stats&lt;/div&gt;&lt;div&gt;Module&lt;/div&gt;&lt;/div&gt;" style="text;strokeColor=#56517e;align=center;fillColor=#d0cee2;html=1;verticalAlign=middle;whiteSpace=wrap;rounded=0;fontColor=#000000;" parent="1" vertex="1">
                    <mxGeometry x="560" y="360" width="80" height="80" as="geometry"/>
                </mxCell>
                <mxCell id="7_ib-58lk79bvDDPkH4Y-4" style="edgeStyle=orthogonalEdgeStyle;html=1;exitX=0.5;exitY=1;exitDx=0;exitDy=0;entryX=0.5;entryY=0;entryDx=0;entryDy=0;fillColor=#e51400;strokeColor=#B20000;" parent="1" source="y75sgq2E1XgLSyIJJuav-425" target="oYupY9DQjBXJfy0KJbgJ-5" edge="1">
                    <mxGeometry relative="1" as="geometry"/>
                </mxCell>
                <mxCell id="7_ib-58lk79bvDDPkH4Y-15" style="edgeStyle=orthogonalEdgeStyle;html=1;exitX=0.5;exitY=1;exitDx=0;exitDy=0;entryX=0.5;entryY=0;entryDx=0;entryDy=0;fillColor=#e51400;strokeColor=#B20000;" parent="1" edge="1">
                    <mxGeometry relative="1" as="geometry">
                        <mxPoint x="425" y="160" as="sourcePoint"/>
                        <mxPoint x="425" y="200" as="targetPoint"/>
                    </mxGeometry>
                </mxCell>
                <mxCell id="7_ib-58lk79bvDDPkH4Y-18" value="Это Modules если что" style="text;strokeColor=none;align=center;fillColor=none;html=1;verticalAlign=middle;whiteSpace=wrap;rounded=0;fontColor=#000000;" parent="1" vertex="1">
                    <mxGeometry x="725" y="485" width="60" height="30" as="geometry"/>
                </mxCell>
            </root>
        </mxGraphModel>
    </diagram>
</mxfile>